<svg width="41" height="32" viewBox="0 0 41 32" fill="none" xmlns="http://www.w3.org/2000/svg">
<path d="M33.9697 3.2024C31.3576 1.99209 28.5835 1.11 25.6878 0.617676C25.3233 1.25361 24.9183 2.11517 24.6348 2.79213C21.555 2.34082 18.4974 2.34082 15.46 2.79213C15.1765 2.11517 14.7513 1.25361 14.407 0.617676C11.4912 1.11 8.7171 1.99209 6.12321 3.2024C0.878721 11.0386 -0.538715 18.6902 0.170001 26.2392C3.65283 28.8034 7.0142 30.3625 10.3168 31.3883C11.1268 30.2805 11.8557 29.0906 12.4835 27.8394C11.2888 27.388 10.1548 26.8341 9.06138 26.1777C9.34487 25.9727 9.62837 25.747 9.8916 25.5213C16.4928 28.5779 23.6427 28.5779 30.1628 25.5213C30.4463 25.747 30.7096 25.9727 30.9931 26.1777C29.8996 26.8341 28.7657 27.388 27.571 27.8394C28.1987 29.0906 28.9277 30.2805 29.7376 31.3883C33.0382 30.3625 36.4198 28.8034 39.8844 26.2392C40.755 17.5005 38.5054 9.91044 33.9697 3.2024ZM13.3947 21.5826C11.4102 21.5826 9.79031 19.757 9.79031 17.521C9.79031 15.285 11.3697 13.4592 13.3947 13.4592C15.3993 13.4592 17.0394 15.285 16.9989 17.521C16.9989 19.757 15.3993 21.5826 13.3947 21.5826ZM26.7003 21.5826C24.7158 21.5826 23.0939 19.757 23.0939 17.521C23.0939 15.285 24.6753 13.4592 26.7003 13.4592C28.705 13.4592 30.3451 15.285 30.3046 17.521C30.3046 19.757 28.7252 21.5826 26.7003 21.5826Z" fill="white"/>
</svg>
